<mxfile host="app.diagrams.net" agent="Mozilla/5.0 (X11; Linux x86_64; rv:139.0) Gecko/20100101 Firefox/139.0" version="27.1.5">
  <diagram name="PÃ¡gina-1" id="c1nH3qmYjXsbv-IB5Y2F">
    <mxGraphModel dx="983" dy="540" grid="1" gridSize="10" guides="1" tooltips="1" connect="1" arrows="1" fold="1" page="1" pageScale="1" pageWidth="827" pageHeight="1169" math="0" shadow="0">
      <root>
        <mxCell id="0" />
        <mxCell id="1" parent="0" />
        <mxCell id="Rl3pUVa1ZcTwZwLe64zG-2" value="MQTT broker" style="shape=umlLifeline;perimeter=lifelinePerimeter;whiteSpace=wrap;html=1;container=1;dropTarget=0;collapsible=0;recursiveResize=0;outlineConnect=0;portConstraint=eastwest;newEdgeStyle={&quot;curved&quot;:0,&quot;rounded&quot;:0};fillColor=#ffe6cc;strokeColor=#d79b00;" parent="1" vertex="1">
          <mxGeometry x="474" y="60" width="100" height="410" as="geometry" />
        </mxCell>
        <mxCell id="Rl3pUVa1ZcTwZwLe64zG-3" value="" style="html=1;points=[[0,0,0,0,5],[0,1,0,0,-5],[1,0,0,0,5],[1,1,0,0,-5]];perimeter=orthogonalPerimeter;outlineConnect=0;targetShapes=umlLifeline;portConstraint=eastwest;newEdgeStyle={&quot;curved&quot;:0,&quot;rounded&quot;:0};fillColor=#ffe6cc;strokeColor=#d79b00;" parent="Rl3pUVa1ZcTwZwLe64zG-2" vertex="1">
          <mxGeometry x="45" y="70" width="10" height="310" as="geometry" />
        </mxCell>
        <mxCell id="Rl3pUVa1ZcTwZwLe64zG-4" value="sub: tmgr/ping, qos: &amp;gt;=1" style="html=1;verticalAlign=bottom;endArrow=block;curved=0;rounded=0;entryX=0;entryY=0;entryDx=0;entryDy=5;" parent="1" source="Rl3pUVa1ZcTwZwLe64zG-6" target="Rl3pUVa1ZcTwZwLe64zG-3" edge="1">
          <mxGeometry x="-0.0021" relative="1" as="geometry">
            <mxPoint x="300" y="125" as="sourcePoint" />
            <mxPoint as="offset" />
          </mxGeometry>
        </mxCell>
        <mxCell id="Rl3pUVa1ZcTwZwLe64zG-7" value="ping" style="html=1;verticalAlign=bottom;endArrow=block;curved=0;rounded=0;" parent="1" edge="1" source="Rl3pUVa1ZcTwZwLe64zG-6">
          <mxGeometry x="-0.0021" relative="1" as="geometry">
            <mxPoint x="195" y="180" as="sourcePoint" />
            <mxPoint x="519" y="180" as="targetPoint" />
            <mxPoint as="offset" />
          </mxGeometry>
        </mxCell>
        <mxCell id="Rl3pUVa1ZcTwZwLe64zG-9" value="pub: tmgr/ping" style="html=1;verticalAlign=bottom;endArrow=block;curved=0;rounded=0;entryX=1;entryY=0;entryDx=0;entryDy=5;" parent="1" source="Rl3pUVa1ZcTwZwLe64zG-3" target="Rl3pUVa1ZcTwZwLe64zG-8" edge="1">
          <mxGeometry relative="1" as="geometry">
            <mxPoint x="320" y="235" as="sourcePoint" />
          </mxGeometry>
        </mxCell>
        <mxCell id="Rl3pUVa1ZcTwZwLe64zG-10" value="puback" style="html=1;verticalAlign=bottom;endArrow=open;dashed=1;endSize=8;curved=0;rounded=0;exitX=1;exitY=1;exitDx=0;exitDy=-5;" parent="1" edge="1" target="Rl3pUVa1ZcTwZwLe64zG-3">
          <mxGeometry relative="1" as="geometry">
            <mxPoint x="519" y="302.58000000000004" as="targetPoint" />
            <mxPoint x="200" y="302.58000000000004" as="sourcePoint" />
          </mxGeometry>
        </mxCell>
        <mxCell id="Rl3pUVa1ZcTwZwLe64zG-11" value="alt" style="shape=umlFrame;whiteSpace=wrap;html=1;pointerEvents=0;" parent="1" vertex="1">
          <mxGeometry x="110" y="260" width="460" height="230" as="geometry" />
        </mxCell>
        <mxCell id="Rl3pUVa1ZcTwZwLe64zG-14" value="" style="endArrow=none;dashed=1;html=1;rounded=0;exitX=0.004;exitY=0.281;exitDx=0;exitDy=0;exitPerimeter=0;entryX=1.004;entryY=0.284;entryDx=0;entryDy=0;entryPerimeter=0;" parent="1" source="Rl3pUVa1ZcTwZwLe64zG-11" target="Rl3pUVa1ZcTwZwLe64zG-11" edge="1">
          <mxGeometry width="50" height="50" relative="1" as="geometry">
            <mxPoint x="129.9999999999999" y="373.36000000000007" as="sourcePoint" />
            <mxPoint x="589.0799999999998" y="370.00000000000017" as="targetPoint" />
          </mxGeometry>
        </mxCell>
        <mxCell id="Rl3pUVa1ZcTwZwLe64zG-15" value="[qos: 1]" style="text;html=1;align=center;verticalAlign=middle;resizable=0;points=[];autosize=1;strokeColor=none;fillColor=none;" parent="1" vertex="1">
          <mxGeometry x="110" y="288" width="60" height="30" as="geometry" />
        </mxCell>
        <mxCell id="Rl3pUVa1ZcTwZwLe64zG-16" value="[qos: 2]" style="text;html=1;align=center;verticalAlign=middle;resizable=0;points=[];autosize=1;strokeColor=none;fillColor=none;" parent="1" vertex="1">
          <mxGeometry x="110" y="338" width="60" height="30" as="geometry" />
        </mxCell>
        <mxCell id="Rl3pUVa1ZcTwZwLe64zG-19" value="pubrec" style="html=1;verticalAlign=bottom;endArrow=block;curved=0;rounded=0;exitX=1;exitY=0.727;exitDx=0;exitDy=0;exitPerimeter=0;" parent="1" edge="1" target="Rl3pUVa1ZcTwZwLe64zG-3">
          <mxGeometry x="-0.0021" relative="1" as="geometry">
            <mxPoint x="200" y="367.99999999999983" as="sourcePoint" />
            <mxPoint x="519" y="367.99999999999983" as="targetPoint" />
            <mxPoint as="offset" />
          </mxGeometry>
        </mxCell>
        <mxCell id="Rl3pUVa1ZcTwZwLe64zG-20" value="pubrel" style="html=1;verticalAlign=bottom;endArrow=block;curved=0;rounded=0;" parent="1" edge="1" target="Rl3pUVa1ZcTwZwLe64zG-8">
          <mxGeometry width="80" relative="1" as="geometry">
            <mxPoint x="519" y="399.58" as="sourcePoint" />
            <mxPoint x="200" y="399.58" as="targetPoint" />
          </mxGeometry>
        </mxCell>
        <mxCell id="Rl3pUVa1ZcTwZwLe64zG-21" value="pubcomp" style="html=1;verticalAlign=bottom;endArrow=open;dashed=1;endSize=8;curved=0;rounded=0;" parent="1" edge="1" source="Rl3pUVa1ZcTwZwLe64zG-8">
          <mxGeometry relative="1" as="geometry">
            <mxPoint x="519" y="430" as="targetPoint" />
            <mxPoint x="200" y="430" as="sourcePoint" />
          </mxGeometry>
        </mxCell>
        <mxCell id="Rl3pUVa1ZcTwZwLe64zG-23" value="Ping" style="shape=umlFrame;whiteSpace=wrap;html=1;pointerEvents=0;" parent="1" vertex="1">
          <mxGeometry x="60" y="30" width="530" height="470" as="geometry" />
        </mxCell>
        <mxCell id="3AWn932AyKpUJygBWIJX-1" value="" style="shape=umlLifeline;perimeter=lifelinePerimeter;whiteSpace=wrap;html=1;container=1;dropTarget=0;collapsible=0;recursiveResize=0;outlineConnect=0;portConstraint=eastwest;newEdgeStyle={&quot;curved&quot;:0,&quot;rounded&quot;:0};participant=umlActor;fillColor=#dae8fc;strokeColor=#6c8ebf;" vertex="1" parent="1">
          <mxGeometry x="180" y="60" width="20" height="410" as="geometry" />
        </mxCell>
        <mxCell id="Rl3pUVa1ZcTwZwLe64zG-6" value="" style="html=1;points=[[0,0,0,0,5],[0,1,0,0,-5],[1,0,0,0,5],[1,1,0,0,-5]];perimeter=orthogonalPerimeter;outlineConnect=0;targetShapes=umlLifeline;portConstraint=eastwest;newEdgeStyle={&quot;curved&quot;:0,&quot;rounded&quot;:0};fillColor=#dae8fc;strokeColor=#6c8ebf;" parent="3AWn932AyKpUJygBWIJX-1" vertex="1">
          <mxGeometry x="5" y="70" width="10" height="320" as="geometry" />
        </mxCell>
        <mxCell id="Rl3pUVa1ZcTwZwLe64zG-8" value="" style="html=1;points=[[0,0,0,0,5],[0,1,0,0,-5],[1,0,0,0,5],[1,1,0,0,-5]];perimeter=orthogonalPerimeter;outlineConnect=0;targetShapes=umlLifeline;portConstraint=eastwest;newEdgeStyle={&quot;curved&quot;:0,&quot;rounded&quot;:0};fillColor=#dae8fc;strokeColor=#6c8ebf;" parent="3AWn932AyKpUJygBWIJX-1" vertex="1">
          <mxGeometry x="10" y="160" width="10" height="220" as="geometry" />
        </mxCell>
      </root>
    </mxGraphModel>
  </diagram>
</mxfile>
